<?xml version="1.0" standalone="no"?>
<!DOCTYPE svg PUBLIC "-//W3C//DTD SVG 20010904//EN"
 "http://www.w3.org/TR/2001/REC-SVG-20010904/DTD/svg10.dtd">
<svg version="1.0" xmlns="http://www.w3.org/2000/svg"
 width="400.000000pt" height="400.000000pt" viewBox="0 0 400.000000 400.000000"
 preserveAspectRatio="xMidYMid meet">

<g transform="translate(0.000000,400.000000) scale(0.100000,-0.100000)"
fill="#000000" stroke="none">
<path d="M685 3989 c-274 -41 -518 -232 -621 -487 -63 -156 -59 -57 -59 -1502
0 -1225 1 -1319 18 -1379 46 -166 103 -267 217 -381 114 -114 215 -171 381
-217 60 -17 154 -18 1379 -18 1225 0 1319 1 1379 18 166 46 267 103 381 217
114 114 171 215 217 381 17 60 18 154 18 1379 0 1225 -1 1319 -18 1379 -46
166 -103 266 -217 381 -112 112 -206 166 -376 217 -55 16 -147 18 -1349 19
-710 1 -1317 -2 -1350 -7z m2648 -264 c189 -49 343 -203 392 -392 23 -86 23
-2580 0 -2666 -49 -189 -203 -343 -392 -392 -86 -23 -2580 -23 -2666 0 -189
49 -343 203 -392 392 -23 86 -23 2580 0 2666 48 186 202 342 388 392 80 21
2587 22 2670 0z"/>
<path d="M1890 2895 l0 -175 -470 0 -470 0 0 -232 0 -232 -33 32 c-90 87 -186
-2 -233 -214 -12 -55 -17 -124 -17 -224 0 -161 15 -255 58 -348 57 -125 124
-151 203 -79 l22 20 0 -251 0 -252 1055 0 1055 0 0 240 c0 132 3 240 6 240 4
0 22 -14 41 -31 28 -24 41 -29 62 -24 61 15 109 93 143 233 30 123 30 357 0
490 -23 100 -62 182 -100 213 -38 29 -85 25 -116 -11 -14 -17 -28 -32 -32 -33
-3 -1 -5 103 -5 231 l2 232 -476 0 -475 0 0 175 0 175 -110 0 -110 0 0 -175z
m-380 -680 c131 -46 206 -192 167 -326 -56 -192 -302 -254 -445 -111 -50 51
-72 105 -72 185 0 185 177 313 350 252z m1193 -18 c52 -31 104 -87 123 -133 8
-19 14 -66 14 -106 0 -67 -3 -79 -35 -129 -55 -88 -128 -130 -227 -132 -109
-1 -218 78 -254 186 -43 129 33 285 162 333 60 22 162 13 217 -19z m-335 -774
l-3 -118 -360 0 -360 0 -3 118 -3 117 366 0 366 0 -3 -117z"/>
</g>
</svg>
