<?xml version="1.0" standalone="no"?>
<!DOCTYPE svg PUBLIC "-//W3C//DTD SVG 20010904//EN"
 "http://www.w3.org/TR/2001/REC-SVG-20010904/DTD/svg10.dtd">
<svg version="1.0" xmlns="http://www.w3.org/2000/svg"
 width="400.000000pt" height="400.000000pt" viewBox="0 0 400.000000 400.000000"
 preserveAspectRatio="xMidYMid meet">

<g transform="translate(0.000000,400.000000) scale(0.100000,-0.100000)"
fill="#000000" stroke="none">
<path d="M691 3989 c-317 -42 -581 -281 -667 -604 -18 -67 -19 -133 -19 -1385
0 -1252 1 -1318 19 -1385 79 -296 295 -512 591 -591 67 -18 133 -19 1385 -19
1252 0 1318 1 1385 19 316 84 546 331 600 643 14 80 15 248 13 1374 -3 1212
-5 1288 -22 1349 -83 293 -293 503 -586 586 -61 17 -134 19 -1350 20 -707 1
-1314 -2 -1349 -7z m2643 -264 c189 -49 342 -202 391 -392 23 -86 23 -2580 0
-2666 -37 -143 -140 -276 -264 -341 -133 -70 -48 -66 -1461 -66 -1407 0 -1330
-3 -1454 63 -88 46 -177 134 -219 215 -71 135 -67 47 -67 1467 0 1150 2 1287
16 1336 56 188 202 334 385 383 83 23 2588 23 2673 1z"/>
<path d="M2614 3441 c-140 -23 -253 -80 -355 -181 -250 -249 -251 -647 -2
-896 120 -120 275 -184 446 -184 176 0 316 58 443 184 66 66 89 97 122 166 51
109 66 173 65 285 -1 340 -254 606 -598 629 -39 3 -93 1 -121 -3z"/>
<path d="M1034 3191 c-140 -23 -253 -80 -355 -181 -250 -249 -251 -647 -2
-896 120 -120 275 -184 446 -184 176 0 316 58 443 184 66 66 89 97 122 166 51
109 66 173 65 285 -1 340 -254 606 -598 629 -39 3 -93 1 -121 -3z"/>
<path d="M1990 2125 c-64 -20 -119 -69 -146 -132 -13 -30 -24 -56 -24 -58 0
-3 12 -5 28 -5 78 0 170 -51 215 -118 14 -22 35 -66 45 -98 11 -33 37 -104 57
-159 20 -55 57 -156 81 -225 86 -237 143 -395 189 -520 25 -69 55 -152 66
-185 11 -32 27 -71 35 -87 8 -15 14 -36 14 -48 l0 -21 368 3 c340 3 370 4 405
22 l37 20 0 388 c0 213 3 388 8 388 4 0 17 -33 30 -73 13 -39 48 -137 77 -217
l54 -145 1 627 0 627 -52 16 c-73 21 -1418 21 -1488 0z"/>
<path d="M472 1303 l3 -588 27 -52 c40 -76 79 -115 150 -154 l63 -34 533 -3
532 -3 0 286 c0 183 4 285 10 285 6 0 10 -6 10 -12 0 -7 44 -136 97 -285 l98
-273 257 0 258 0 -15 38 c-12 31 -158 434 -397 1097 -62 173 -68 185 -112 223
-71 62 -69 62 -828 62 l-689 0 3 -587z"/>
</g>
</svg>
