<?xml version="1.0" standalone="no"?>
<!DOCTYPE svg PUBLIC "-//W3C//DTD SVG 20010904//EN"
 "http://www.w3.org/TR/2001/REC-SVG-20010904/DTD/svg10.dtd">
<svg version="1.0" xmlns="http://www.w3.org/2000/svg"
 width="400.000000pt" height="400.000000pt" viewBox="0 0 400.000000 400.000000"
 preserveAspectRatio="xMidYMid meet">

<g transform="translate(0.000000,400.000000) scale(0.100000,-0.100000)"
fill="#000000" stroke="none">
<path d="M1191 3969 c-64 -8 -209 -47 -224 -59 -4 -4 28 -67 71 -141 44 -74
104 -176 133 -228 l54 -93 70 -3 c126 -6 212 -69 294 -215 23 -41 56 -97 73
-125 17 -27 37 -70 44 -94 27 -87 12 -204 -35 -270 l-22 -31 69 -117 c38 -65
93 -160 122 -210 29 -51 53 -93 55 -93 5 0 239 132 250 140 8 7 138 82 440
255 22 13 112 65 200 115 191 111 216 125 294 170 34 19 61 38 61 41 0 8 -208
219 -265 269 -560 490 -1200 752 -1684 689z"/>
<path d="M680 3723 c-109 -110 -187 -233 -260 -408 -138 -333 -168 -883 -75
-1370 41 -214 111 -475 128 -475 9 0 124 65 187 105 19 12 105 62 190 110 146
84 500 287 565 325 17 10 87 51 158 91 70 41 128 76 130 79 2 4 -130 240 -208
371 l-30 51 -67 3 c-79 3 -155 36 -206 88 -40 41 -199 317 -213 372 -20 72 4
190 52 255 8 12 -13 57 -103 215 -149 261 -152 265 -162 265 -5 0 -43 -35 -86
-77z"/>
<path d="M3150 2766 c-120 -70 -189 -110 -630 -365 -287 -167 -581 -336 -785
-451 -99 -57 -207 -119 -240 -140 -33 -21 -125 -74 -205 -120 -216 -122 -732
-420 -739 -426 -7 -6 136 -285 181 -355 82 -125 163 -225 273 -334 146 -147
227 -212 385 -306 103 -62 269 -141 325 -155 17 -4 35 -10 40 -14 20 -14 222
-60 310 -70 575 -65 1073 159 1391 625 118 172 217 436 245 652 7 51 16 93 21
93 11 0 10 353 -1 365 -4 6 -14 51 -20 100 -30 220 -118 482 -232 687 -47 84
-181 288 -189 287 -3 0 -61 -33 -130 -73z"/>
</g>
</svg>
