<?xml version="1.0" standalone="no"?>
<!DOCTYPE svg PUBLIC "-//W3C//DTD SVG 20010904//EN"
 "http://www.w3.org/TR/2001/REC-SVG-20010904/DTD/svg10.dtd">
<svg version="1.0" xmlns="http://www.w3.org/2000/svg"
 width="306.000000pt" height="306.000000pt" viewBox="0 0 306.000000 306.000000"
 preserveAspectRatio="xMidYMid meet">

<g transform="translate(0.000000,306.000000) scale(0.100000,-0.100000)"
fill="#000000" stroke="none">
<path d="M2121 2919 c-248 -48 -440 -227 -501 -465 -57 -222 2 -446 160 -605
129 -131 270 -191 445 -191 203 -1 372 77 496 227 211 255 194 620 -41 856
-148 148 -363 217 -559 178z"/>
<path d="M541 2669 c-248 -48 -440 -227 -501 -465 -57 -222 2 -446 160 -605
129 -131 270 -191 445 -191 203 -1 372 77 496 227 211 255 194 620 -41 856
-148 148 -363 217 -559 178z"/>
<path d="M1505 1604 c-55 -20 -121 -88 -140 -142 -8 -25 -14 -46 -12 -47 1 0
29 -6 62 -13 106 -21 179 -91 220 -208 13 -38 39 -112 58 -164 19 -52 76 -210
126 -350 51 -140 101 -277 111 -305 11 -27 36 -95 55 -150 20 -55 46 -127 58
-160 l23 -60 412 -3 412 -2 2 387 3 388 29 -80 c64 -178 95 -263 114 -315 l21
-55 -2 634 -2 634 -35 13 c-55 20 -1460 18 -1515 -2z"/>
<path d="M0 685 l0 -685 655 0 655 0 2 262 3 263 29 -80 c16 -44 43 -120 61
-170 18 -50 48 -132 67 -182 l33 -93 258 0 c141 0 257 2 257 4 0 4 -197 552
-250 696 -18 47 -45 121 -60 165 -125 355 -139 388 -182 432 -74 76 -44 73
-830 73 l-698 0 0 -685z"/>
</g>
</svg>
