<?xml version="1.0" standalone="no"?>
<!DOCTYPE svg PUBLIC "-//W3C//DTD SVG 20010904//EN"
 "http://www.w3.org/TR/2001/REC-SVG-20010904/DTD/svg10.dtd">
<svg version="1.0" xmlns="http://www.w3.org/2000/svg"
 width="306.000000pt" height="306.000000pt" viewBox="0 0 306.000000 306.000000"
 preserveAspectRatio="xMidYMid meet">

<g transform="translate(0.000000,306.000000) scale(0.100000,-0.100000)"
fill="#000000" stroke="none">
<path d="M1398 2555 l-3 -196 -525 -2 -525 -2 -3 -257 c-1 -142 -4 -258 -6
-258 -2 0 -18 14 -36 30 -41 39 -69 45 -113 26 -65 -27 -120 -127 -155 -286
-26 -117 -23 -397 6 -512 40 -161 103 -255 180 -265 35 -5 44 -1 81 32 l41 37
0 -291 0 -291 1193 2 1192 3 3 278 c1 152 4 277 6 277 2 0 20 -16 39 -35 58
-58 112 -45 173 40 150 212 133 812 -29 982 -54 57 -109 52 -162 -16 l-20 -26
-5 265 -5 265 -530 2 -530 2 -3 196 -2 195 -130 0 -130 0 -2 -195z m-402 -789
c66 -31 120 -86 151 -153 21 -46 24 -66 21 -131 -4 -90 -25 -139 -83 -197 -78
-79 -183 -109 -280 -80 -146 42 -226 144 -225 289 1 132 76 238 197 282 62 22
160 18 219 -10z m1339 -17 c100 -59 145 -142 145 -269 0 -106 -66 -207 -168
-257 -46 -23 -70 -28 -127 -28 -80 0 -134 22 -202 80 -118 101 -127 295 -19
422 15 17 55 46 89 63 57 29 68 31 143 28 72 -4 89 -9 139 -39z m-395 -869 l0
-130 -404 0 c-314 0 -405 3 -409 13 -3 10 -2 236 2 245 1 1 183 2 406 2 l405
0 0 -130z"/>
</g>
</svg>
